:SAMPLES-PER-SECOND 30
:FULLY-SPECIFIED
:DEGREES
364
root  -2.88689 40.888 -0.0332912 -20.884 -87.0651 18.1941
RightUpLeg  7.00279 -2.589 -1.53295
RightLeg  -0.382098 -21.3586 0.575938
RightFoot  -2.69576 -0.220028 2.64717
RightToes  -3.13006e-008 1.75238e-005 3.56266e-009
Spine  -7.24514 1.14277 4.14608
Spine1  11.6655 2.71407 -6.54719
HEad  -12.8992 1.20556 -9.58492
LeftShoulder1  3.38635 -7.67317 -24.0905
LeftArm  -47.8095 -15.3979 -43.6363
LeftForeArm  81.7775 -79.532 -89.9676
LeftHand  -0.0168281 -3.69695 0.470567
RightShoulder  3.05177 7.79446 20.67
RightArm  -32.5725 39.0724 24.1118
RightForeArm  45.5323 74.1211 37.0555
RightHand  -0.521446 8.46295 -4.74178
LeftUpLeg  5.68635 1.51408 2.56047
LeftLeg  -1.19805 9.02676 -0.465048
LeftFoot  -0.792348 0.371753 -4.03102
LeftToes  4.76866e-008 1.46233e-008 1.30548e-009
365
root  -2.89072 40.8884 0.00624326 -19.7667 -87.0769 17.1149
RightUpLeg  6.99454 -2.56751 -1.52513
RightLeg  -0.441883 -21.4047 0.590555
RightFoot  -2.64354 -0.223896 2.69227
RightToes  -3.13006e-008 1.75238e-005 3.56266e-009
Spine  -7.46131 1.06911 4.22479
Spine1  11.9775 2.66852 -6.65975
HEad  -12.9466 1.08249 -9.04528
LeftShoulder1  3.32045 -7.51176 -23.9291
LeftArm  -46.5092 -14.9538 -43.8992
LeftForeArm  82.0687 -79.4964 -91.0018
LeftHand  -0.055984 -4.06534 0.957739
RightShoulder  3.09674 7.83409 20.9943
RightArm  -32.2858 38.2567 24.4599
RightForeArm  46.7997 74.8691 39.6231
RightHand  -0.587565 8.04562 -5.43316
LeftUpLeg  5.63672 1.51645 2.54996
LeftLeg  -1.16653 9.01215 -0.459927
LeftFoot  -0.822906 0.359492 -3.86648
LeftToes  4.76866e-008 1.46233e-008 1.30548e-009
366
root  -2.89975 40.889 0.0463787 -19.3126 -87.0752 16.6913
RightUpLeg  6.98801 -2.55334 -1.55042
RightLeg  -0.46341 -21.4031 0.569239
RightFoot  -2.61645 -0.228135 2.74554
RightToes  -3.13006e-008 1.75238e-005 3.56266e-009
Spine  -7.69533 1.02024 3.89734
Spine1  12.2566 2.5257 -6.20086
HEad  -12.7542 0.94933 -8.55906
LeftShoulder1  3.35953 -7.49829 -24.3414
LeftArm  -45.2133 -14.8479 -43.8486
LeftForeArm  82.344 -79.3984 -93.1622
LeftHand  0.00544662 -3.7866 0.192405
RightShoulder  3.0515 7.70558 20.8981
RightArm  -31.4064 37.0052 25.6463
RightForeArm  48.4937 75.6564 42.7986
RightHand  -0.658039 8.2132 -5.97598
LeftUpLeg  5.61181 1.54147 2.52712
LeftLeg  -1.15204 8.99068 -0.51157
LeftFoot  -0.801374 0.342752 -3.63013
LeftToes  4.76866e-008 1.46233e-008 1.30548e-009
367
root  -2.89905 40.8896 0.0874206 -20.0189 -87.0819 17.3741
RightUpLeg  6.9712 -2.57422 -1.64145
RightLeg  -0.374587 -21.3218 0.494403
RightFoot  -2.60334 -0.235072 2.84234
RightToes  -3.13006e-008 1.75238e-005 3.56266e-009
Spine  -7.65332 0.955366 3.86567
Spine1  12.2481 2.48493 -6.28074
HEad  -12.6058 1.35619 -8.46883
LeftShoulder1  3.30392 -7.32523 -24.3142
LeftArm  -43.4437 -14.6834 -44.2136
LeftForeArm  83.5262 -79.3711 -94.5751
LeftHand  0.0488173 -3.68654 -0.369012
RightShoulder  3.09964 7.75248 21.2355
RightArm  -30.3425 35.2766 26.6397
RightForeArm  52.1895 76.7868 48.2306
RightHand  -0.703175 8.43323 -6.2641
LeftUpLeg  5.65571 1.51629 2.44635
LeftLeg  -1.16922 9.05592 -0.543972
LeftFoot  -0.873878 0.351883 -3.81192
LeftToes  4.76866e-008 1.46233e-008 1.30548e-009
368
root  -2.89618 40.8903 0.131775 -19.6966 -87.051 16.9902
RightUpLeg  7.05593 -2.59203 -1.69711
RightLeg  -0.40308 -21.3247 0.481368
RightFoot  -2.5909 -0.236912 2.86102
RightToes  -3.13006e-008 1.75238e-005 3.56266e-009
Spine  -7.67992 0.979332 3.91907
Spine1  12.4228 2.54566 -6.39307
HEad  -12.5057 1.32495 -8.19989
LeftShoulder1  3.3246 -7.42895 -24.2088
LeftArm  -41.2496 -14.653 -44.3024
LeftForeArm  85.0057 -79.4138 -94.974
LeftHand  0.0427182 -3.47899 -0.31434
RightShoulder  3.13552 7.69321 21.7304
RightArm  -29.1941 33.2159 27.413
RightForeArm  57.4762 77.839 54.8099
RightHand  -0.766656 8.54527 -6.74645
LeftUpLeg  5.69888 1.50027 2.38147
LeftLeg  -1.12831 9.03929 -0.539792
LeftFoot  -0.931287 0.342214 -3.69521
LeftToes  4.76866e-008 1.46233e-008 1.30548e-009
